<svg xmlns="http://www.w3.org/2000/svg" xmlns:xlink="http://www.w3.org/1999/xlink" viewBox="0 0 686.97 163.91"><defs><style>.cls-1{fill:#2e3191;}.cls-1,.cls-10,.cls-2,.cls-3,.cls-4,.cls-5,.cls-6,.cls-7,.cls-8,.cls-9{fill-rule:evenodd;}.cls-2{fill:url(#linear-gradient);}.cls-3{fill:url(#linear-gradient-2);}.cls-4{fill:url(#linear-gradient-3);}.cls-5{fill:url(#linear-gradient-4);}.cls-6{fill:url(#linear-gradient-5);}.cls-7{fill:url(#linear-gradient-6);}.cls-8{fill:url(#linear-gradient-7);}.cls-9{fill:url(#linear-gradient-8);}.cls-10{fill:url(#linear-gradient-9);}.cls-11{font-size:31.48px;fill:#58595b;font-family:Catamaran-SemiBold, Catamaran;font-weight:600;letter-spacing:0.46em;}</style><linearGradient id="linear-gradient" x1="505.04" y1="57.38" x2="505.04" y2="94.78" gradientUnits="userSpaceOnUse"><stop offset="0" stop-color="#fff"/><stop offset="1" stop-color="#25b0e5"/></linearGradient><linearGradient id="linear-gradient-2" x1="548.74" y1="57.38" x2="548.74" y2="94.78" xlink:href="#linear-gradient"/><linearGradient id="linear-gradient-3" x1="592.5" y1="57.38" x2="592.5" y2="94.78" xlink:href="#linear-gradient"/><linearGradient id="linear-gradient-4" x1="453.65" y1="57.38" x2="453.65" y2="94.78" xlink:href="#linear-gradient"/><linearGradient id="linear-gradient-5" x1="363.02" y1="57.66" x2="363.02" y2="95.07" xlink:href="#linear-gradient"/><linearGradient id="linear-gradient-6" x1="406.71" y1="57.66" x2="406.71" y2="95.07" xlink:href="#linear-gradient"/><linearGradient id="linear-gradient-7" x1="306.41" y1="56.8" x2="306.41" y2="94.2" xlink:href="#linear-gradient"/><linearGradient id="linear-gradient-8" x1="221.95" y1="57.88" x2="221.95" y2="93.59" xlink:href="#linear-gradient"/><linearGradient id="linear-gradient-9" x1="642.9" y1="57.38" x2="642.9" y2="94.78" xlink:href="#linear-gradient"/></defs><g id="Layer_2" data-name="Layer 2"><g id="Layer_1-2" data-name="Layer 1"><path class="cls-1" d="M669.42,64.37V77.52H623.16q9.9-4.15,25.37-4.37V60.51q0-8.91-7.18-8.91a6.85,6.85,0,0,0-4.86,1.79,6.25,6.25,0,0,0-1.93,4.79,8.37,8.37,0,0,0,2.13,5.52,15,15,0,0,1-11.37,4.79q-6.86,0-10.11-3.06a10.42,10.42,0,0,1-3.26-8q0-7.46,9.11-12.24a45.16,45.16,0,0,1,21.28-4.79q12.18,0,19.63,5.72t7.45,18.23Z"/><path class="cls-1" d="M600.53,64.37V77.52H579.65V67.43a11.22,11.22,0,0,0-2.33-7.52,8.19,8.19,0,0,0-6.59-2.73q-4.25,0-8.24,3.79t-5.72,11.24v5.31H535.88V67.43a11.22,11.22,0,0,0-2.33-7.52A8.17,8.17,0,0,0,527,57.18q-4.26,0-8.25,3.93T513,72.75v4.77H492.12V55.45q0-6.91-4.53-9.31,5.06-5.72,11.84-5.72t10,3.39q3.19,3.39,3.59,10.45A24.67,24.67,0,0,1,522.91,44a27.66,27.66,0,0,1,13.7-3.53,19.46,19.46,0,0,1,12.44,4q5.06,4,6.78,11.58a25.39,25.39,0,0,1,10.11-11.58,28.92,28.92,0,0,1,15.17-4,17.87,17.87,0,0,1,14,6.12q5.45,6.12,5.45,17.83Z"/><path class="cls-1" d="M459,67.43a5.67,5.67,0,0,0,3.6-1.53q1.18-1.28,1.19-4.86a11.3,11.3,0,0,0-2.06-6.58,6.5,6.5,0,0,0-5.65-3q-3.6,0-6.79,4.53t-4.25,13.16ZM423.93,77.52a40.84,40.84,0,0,1,9.68-25.66,30.86,30.86,0,0,1,24.61-11.44q11.43,0,18.89,7.38t7.45,16.83q0,7.32-3.46,10.51a11.43,11.43,0,0,1-4.51,2.41l.09,0Z"/><path class="cls-1" d="M414.74,64.37V77.52H393.85V67.43c0-3.2-.77-5.7-2.32-7.52a8.2,8.2,0,0,0-6.59-2.73q-4.26,0-8.25,3.93T371,72.75v4.77H350.09V55.45q0-6.91-4.52-9.31,5.06-5.72,11.84-5.72t10,3.39q3.19,3.39,3.59,10.45A24.73,24.73,0,0,1,380.88,44a29.57,29.57,0,0,1,14.64-3.53,17.66,17.66,0,0,1,13.77,6.12q5.44,6.12,5.45,17.83Z"/><path class="cls-1" d="M340.13,77.52H318.92c0-.3,0-.61-.07-.92Q317,50.53,304.22,50.53a9.26,9.26,0,0,0-8.58,5q-2.86,5-2.86,15,0,2.92.26,6.11c0,.31,0,.62.07.92H271.77c0-11.62,3.14-21.47,9.43-27.72s14.55-9.38,24.75-9.38,18.45,3.13,24.74,9.38S340.13,65.9,340.13,77.52Z"/><path class="cls-1" d="M260.27,74.14a23.4,23.4,0,0,0-6-7.65A36.92,36.92,0,0,0,237.33,59q8.91-1.84,13.9-7a17.31,17.31,0,0,0,5-12.57q0-11.83-9.78-19.55t-29.6-7.72A112.88,112.88,0,0,0,178,19.14q3.58,5.45,3.59,14.63V77.52h21V68.36H219.5q10.11,0,15.84,4.19a14,14,0,0,1,4.35,5h21.94A19.74,19.74,0,0,0,260.27,74.14ZM230.15,50.73q-4.67,3.93-12.51,3.93h-.53l-14.5-.14V28.32a50.79,50.79,0,0,1,14.3-1.73q8.44,0,13.17,3.92a12.45,12.45,0,0,1,4.46,7.32,14.68,14.68,0,0,1,.26,2.79A12.63,12.63,0,0,1,230.15,50.73Z"/><path class="cls-2" d="M517.68,110.88a15.75,15.75,0,0,1-12.24,5.73q-13,0-13-15.84V81.21h20.89v20.23Q513.29,108.63,517.68,110.88Z"/><path class="cls-3" d="M561.31,110.88a15.11,15.11,0,0,1-12.11,5.73q-13,0-13-15.84V81.21h20.88v20.23Q557.05,108.63,561.31,110.88Z"/><path class="cls-4" d="M605.07,110.88a15.09,15.09,0,0,1-12.1,5.73q-13,0-13-15.84V81.21h20.89v20.23Q600.82,108.63,605.07,110.88Z"/><path class="cls-5" d="M483.11,99.31q0,6.39-7.58,11.84a29.7,29.7,0,0,1-17.83,5.46q-15.82,0-24.67-8.65t-8.85-24.81c0-.65,0-1.3,0-1.94H445V83h0q.93,19.15,16.63,19.16a23.78,23.78,0,0,0,18.5-8.38Q483.1,95.05,483.11,99.31Z"/><path class="cls-6" d="M375.65,111.17a15.74,15.74,0,0,1-12.24,5.72q-13,0-13-15.83V81.49h20.88v20.24Q371.26,108.92,375.65,111.17Z"/><path class="cls-7" d="M419.29,111.17a15.11,15.11,0,0,1-12.11,5.72q-13,0-13-15.83V81.49H415v20.24Q415,108.92,419.29,111.17Z"/><path class="cls-8" d="M340.59,81.7q-.24,16.76-9.5,26-9.51,9.45-24.74,9.45t-24.68-9.45q-9.19-9.18-9.44-25.95h21.34Q295.34,107,308.14,107q11.44,0,11.44-20.08c0-1.61-.06-3.34-.19-5.21Z"/><path class="cls-9" d="M262.45,87.43q0,12.51-12,20.56a55.47,55.47,0,0,1-31.39,9.14c-13,0-22.46-3-28.54-6.75s-9.11-9.87-9.11-18.29V80.63h21V93.81q0,7.86,16.89,7.85,10.11,0,15.84-4.12a12.83,12.83,0,0,0,5.71-10.91,13.1,13.1,0,0,0-1.36-6h22A23.53,23.53,0,0,1,262.45,87.43Z"/><path class="cls-10" d="M669.7,98.25v-17H623.45a34.69,34.69,0,0,0-4,1.94q-10.57,6.06-10.58,16.16,0,8.25,5.46,12.77T629,116.61a27.13,27.13,0,0,0,20.62-8.78q2.39,8.78,12.23,8.78a17.68,17.68,0,0,0,8.58-2.2,18.76,18.76,0,0,0,6.46-5.52Q669.71,106.63,669.7,98.25Zm-20.88.13q-4.4,5.06-9.85,5.06-7.44,0-7.45-6.52,0-10.51,17.3-11.44Z"/><path class="cls-1" d="M51.09,40.39A122.71,122.71,0,0,0,46.69,53a115.89,115.89,0,0,0-3.64,17.76l2.07,0h.58q8.65,0,13.78-4.33a13.88,13.88,0,0,0,5.13-11.13A13.81,13.81,0,0,0,59.4,44.15a18.4,18.4,0,0,0-8.31-3.76Zm67.8,23.71c-2.78-2.8-5.59-5.23-8.84-8.14-1.34-1.19-2.65-2.05-4-3.15l-4.33-3.17A129.73,129.73,0,0,0,83.84,39.29,25.7,25.7,0,0,1,88.2,54a19.62,19.62,0,0,1-2.34,9.61,46.78,46.78,0,0,0,6.88.45ZM117,99.39c4.44-3.36,9.47-7.43,10.22-9,1-2.12-.66-1.59.75-6.1,1.48-4.77,4-4.24,1.29-8.06q-1.93-.15-4.14-.15H117ZM93.18,113.52c1-.43,1.92-.86,2.8-1.28a26,26,0,0,0,2.55-1.19c.84-.51,1.6-.94,2.33-1.34V76.12h-13q-7.71,0-9.4-4.84a32.94,32.94,0,0,1-11.12,4.3A40.65,40.65,0,0,1,86,83.79a25.8,25.8,0,0,1,6.67,8.43,24.39,24.39,0,0,1,2.56,11.21A24.73,24.73,0,0,1,93.18,113.52ZM42.12,85.84a122.89,122.89,0,0,0,3.42,28.08c1,4.12,2.08,2.59,4.74,5.12q9.34-.47,14.91-4.48a14.12,14.12,0,0,0,6.3-12,14.3,14.3,0,0,0-6.3-12.09q-6.3-4.62-17.44-4.62Z"/><path class="cls-1" d="M154.11,51.83c0-1.89-5.09-11.68-6.73-14.17-1.45-2.21-2.7-4-4.23-6.07A80.46,80.46,0,0,0,99,2.47c-2.65-.65-5.61-1.14-8.7-1.59C78.41-.83,79.05-.23,74.48,4.33c-3,3-10.44,11.9-11.79,14.74-.92,1.93-.09,1.77,0,4.05.06,1.19,0,2.07.11,2.74a37.37,37.37,0,0,1,14.36,6.45,131.27,131.27,0,0,1,28.49,15.55c1.11.84,2,1.35,3.08,2.23L113,53.62c3.46,3.21,8,6.8,11.16,10.48H130q9.86,0,9.86,7.91a6.7,6.7,0,0,1-.31,2c2.14-.19,2.27,0,3.39-1.57,2.05-2.94,11.22-18.28,11.22-20.6Z"/><path class="cls-1" d="M39.26,70.69a86.81,86.81,0,0,1,2-11.31c1.35-5.35,2.87-11.75,4.93-16.91.43-1.08.78-1.91,1-2.57-.75,0-1.53-.07-2.32-.07a56.29,56.29,0,0,0-15.76,1.9V70.6Zm1.28,48c.92-1.86,2.26-.53.7-6.72a112.9,112.9,0,0,1-2.79-26.14H29.14v24.62Q29.14,117.23,40.54,118.7ZM0,76.47c0,9.37,0,13.7,2.56,23A85.53,85.53,0,0,0,6,109.66c0-.37,0-.73,0-1.11V49C2.51,57.33,0,67.56,0,76.47Z"/><path class="cls-1" d="M53.66,136.37c0,1.92,10.73,19.44,12.28,20.48,2.31,1.55,13.84,1.36,17.36,1.36A62.08,62.08,0,0,0,95,156.83c12.59-2.51,22.15-7.13,32.26-14.22a38,38,0,0,0,3.67-2.88c1.26-1.18,2.19-1.88,3.43-3.12a86.88,86.88,0,0,0,6.5-6.92c1.05-1.33,1.92-2.35,2.9-3.65,6.29-8.36,5.65-8,3-15.76a117.17,117.17,0,0,0-5.49-13.84c-3.46-7-3.38-5.51-7.09-4.28s-2.33-.71-5.62,2.49A95,95,0,0,1,117,104.21v25q0,5.55,3.39,7.29a12.18,12.18,0,0,1-9.46,4.42q-10.07,0-10.07-12.23V114c-1.17.62-2.35,1.22-3.52,1.81-2.4,1.21-5,2.34-7.6,3.39a34.83,34.83,0,0,1-7.69,6.9q-11,7.41-27.78,8.62a3.51,3.51,0,0,0-.61,1.68Z"/><path class="cls-1" d="M141.32,87.39c0,1.15,1.83,4.27,2.4,5.41l4.78,10.81c.72,1.81,1,4.37,3.43,4.37s2.81-2.67,3.47-4.64c3.63-10.86,5.09-27.1,2.45-38.71-.69-3-3.73-3.64-5.41-.43-2.6,5-5.31,8.29-7.52,11.81-.91,1.45-.26,2.49-.59,4.4-.58,3.26-3,6.07-3,7Z"/><path class="cls-1" d="M18.69,130.15c1.4,2.51,4.92,5.33,6.34,6.77a22.89,22.89,0,0,0,2,1.73c.85.72,1.25,1.13,2.18,1.88a78.07,78.07,0,0,0,14.24,9.15c1.88.94,9.07,4.48,11.13,4.48a3,3,0,0,0,2.49-2.5c0-1.38-3.42-6.51-4.27-8.21s-3.34-7.06-4.72-8.07a6.39,6.39,0,0,0-.74-.45q-18.68,0-28.67-4.78Z"/><path class="cls-1" d="M26.52,20.94c0,4.1,3,3.14,9.68,3.12l1.67.14q3.47-.19,7-.2c1.77,0,3.49,0,5.15.13,1.38-1.38,2.31-4,7.69-5.74,1.52-.48,2.5-2.5,3.93-4.49l5.49-7c.92-1.17,1.55-1.32,1.55-3.13,0-2.74-2.62-2.51-4.86-2a76.17,76.17,0,0,0-18.33,6,89.67,89.67,0,0,0-10.19,5.72c-1.39.92-8.73,6.11-8.73,7.49Z"/><text class="cls-11" transform="translate(188.3 152.04)">MEDICAL SUPPLIES</text></g></g></svg>